<svg width="16" height="16" viewBox="0 0 16 16" fill="none" xmlns="http://www.w3.org/2000/svg">
<path d="M11.497 6.19386C11.3721 6.06969 11.2032 6 11.027 6C10.8509 6 10.6819 6.06969 10.557 6.19386L8.1637 8.55386L5.8037 6.19386C5.67879 6.06969 5.50983 6 5.3337 6C5.15758 6 4.98861 6.06969 4.8637 6.19386C4.80122 6.25584 4.75162 6.32957 4.71778 6.41081C4.68393 6.49205 4.6665 6.57919 4.6665 6.66719C4.6665 6.7552 4.68393 6.84234 4.71778 6.92358C4.75162 7.00482 4.80122 7.07855 4.8637 7.14053L7.69037 9.96719C7.75234 10.0297 7.82608 10.0793 7.90732 10.1131C7.98856 10.147 8.07569 10.1644 8.1637 10.1644C8.25171 10.1644 8.33885 10.147 8.42009 10.1131C8.50133 10.0793 8.57506 10.0297 8.63704 9.96719L11.497 7.14053C11.5595 7.07855 11.6091 7.00482 11.643 6.92358C11.6768 6.84234 11.6942 6.7552 11.6942 6.66719C11.6942 6.57919 11.6768 6.49205 11.643 6.41081C11.6091 6.32957 11.5595 6.25584 11.497 6.19386Z" fill="#B00020"/>
</svg>
