<svg width="14" height="14" viewBox="0 0 14 14" fill="none" xmlns="http://www.w3.org/2000/svg">
<path d="M11.0832 2.33337H2.9165C2.45238 2.33337 2.00726 2.51775 1.67907 2.84594C1.35088 3.17413 1.1665 3.61925 1.1665 4.08337V9.91671C1.1665 10.3808 1.35088 10.826 1.67907 11.1541C2.00726 11.4823 2.45238 11.6667 2.9165 11.6667H11.0832C11.5473 11.6667 11.9924 11.4823 12.3206 11.1541C12.6488 10.826 12.8332 10.3808 12.8332 9.91671V4.08337C12.8332 3.61925 12.6488 3.17413 12.3206 2.84594C11.9924 2.51775 11.5473 2.33337 11.0832 2.33337ZM2.9165 3.50004H11.0832C11.2379 3.50004 11.3863 3.5615 11.4956 3.6709C11.605 3.78029 11.6665 3.92866 11.6665 4.08337L6.99984 6.93004L2.33317 4.08337C2.33317 3.92866 2.39463 3.78029 2.50402 3.6709C2.61342 3.5615 2.76179 3.50004 2.9165 3.50004ZM11.6665 9.91671C11.6665 10.0714 11.605 10.2198 11.4956 10.3292C11.3863 10.4386 11.2379 10.5 11.0832 10.5H2.9165C2.76179 10.5 2.61342 10.4386 2.50402 10.3292C2.39463 10.2198 2.33317 10.0714 2.33317 9.91671V5.41337L6.6965 8.07921C6.78518 8.13041 6.88577 8.15736 6.98817 8.15736C7.09057 8.15736 7.19116 8.13041 7.27984 8.07921L11.6665 5.41337V9.91671Z" fill="white"/>
</svg>
