<svg width="14" height="14" viewBox="0 0 14 14" fill="none" xmlns="http://www.w3.org/2000/svg">
<path d="M12.7866 6.76671C11.6083 4.03087 9.39158 2.33337 6.99992 2.33337C4.60825 2.33337 2.39158 4.03087 1.21325 6.76671C1.18113 6.8403 1.16455 6.91974 1.16455 7.00004C1.16455 7.08034 1.18113 7.15978 1.21325 7.23337C2.39158 9.96921 4.60825 11.6667 6.99992 11.6667C9.39158 11.6667 11.6083 9.96921 12.7866 7.23337C12.8187 7.15978 12.8353 7.08034 12.8353 7.00004C12.8353 6.91974 12.8187 6.8403 12.7866 6.76671ZM6.99992 10.5C5.15075 10.5 3.40075 9.16421 2.39158 7.00004C3.40075 4.83587 5.15075 3.50004 6.99992 3.50004C8.84908 3.50004 10.5991 4.83587 11.6083 7.00004C10.5991 9.16421 8.84908 10.5 6.99992 10.5ZM6.99992 4.66671C6.53843 4.66671 6.0873 4.80356 5.70359 5.05995C5.31987 5.31634 5.0208 5.68075 4.8442 6.10711C4.66759 6.53347 4.62139 7.00263 4.71142 7.45525C4.80145 7.90787 5.02368 8.32363 5.35 8.64996C5.67632 8.97628 6.09208 9.19851 6.54471 9.28854C6.99733 9.37857 7.46648 9.33236 7.89285 9.15576C8.31921 8.97916 8.68362 8.68009 8.94001 8.29637C9.1964 7.91266 9.33325 7.46153 9.33325 7.00004C9.33325 6.3812 9.08742 5.78771 8.64983 5.35013C8.21225 4.91254 7.61876 4.66671 6.99992 4.66671ZM6.99992 8.16671C6.76917 8.16671 6.54361 8.09828 6.35175 7.97009C6.15989 7.84189 6.01036 7.65969 5.92206 7.44651C5.83376 7.23332 5.81065 6.99875 5.85567 6.77244C5.90068 6.54612 6.0118 6.33824 6.17496 6.17508C6.33812 6.01192 6.546 5.90081 6.77231 5.85579C6.99862 5.81078 7.2332 5.83388 7.44638 5.92218C7.65956 6.01048 7.84177 6.16002 7.96996 6.35188C8.09816 6.54373 8.16658 6.7693 8.16658 7.00004C8.16658 7.30946 8.04367 7.60621 7.82487 7.825C7.60608 8.04379 7.30934 8.16671 6.99992 8.16671Z" fill="white"/>
</svg>
