<svg width="14" height="14" viewBox="0 0 14 14" fill="none" xmlns="http://www.w3.org/2000/svg">
<path d="M7.00016 7.58329C6.82257 7.58122 6.6486 7.6336 6.50167 7.73339C6.35474 7.83317 6.24192 7.97558 6.17837 8.14143C6.11483 8.30728 6.10362 8.48862 6.14625 8.66104C6.18888 8.83345 6.28331 8.98867 6.41683 9.10579V9.91663C6.41683 10.0713 6.47829 10.2197 6.58768 10.3291C6.69708 10.4385 6.84545 10.5 7.00016 10.5C7.15487 10.5 7.30325 10.4385 7.41264 10.3291C7.52204 10.2197 7.5835 10.0713 7.5835 9.91663V9.10579C7.71701 8.98867 7.81144 8.83345 7.85408 8.66104C7.89671 8.48862 7.8855 8.30728 7.82196 8.14143C7.75841 7.97558 7.64558 7.83317 7.49866 7.73339C7.35173 7.6336 7.17776 7.58122 7.00016 7.58329ZM9.91683 5.24996V4.08329C9.91683 3.30974 9.60954 2.56788 9.06256 2.0209C8.51558 1.47392 7.77371 1.16663 7.00016 1.16663C6.22661 1.16663 5.48475 1.47392 4.93777 2.0209C4.39079 2.56788 4.0835 3.30974 4.0835 4.08329V5.24996C3.61937 5.24996 3.17425 5.43433 2.84606 5.76252C2.51787 6.09071 2.3335 6.53583 2.3335 6.99996V11.0833C2.3335 11.5474 2.51787 11.9925 2.84606 12.3207C3.17425 12.6489 3.61937 12.8333 4.0835 12.8333H9.91683C10.381 12.8333 10.8261 12.6489 11.1543 12.3207C11.4825 11.9925 11.6668 11.5474 11.6668 11.0833V6.99996C11.6668 6.53583 11.4825 6.09071 11.1543 5.76252C10.8261 5.43433 10.381 5.24996 9.91683 5.24996ZM5.25016 4.08329C5.25016 3.61916 5.43454 3.17404 5.76273 2.84586C6.09091 2.51767 6.53603 2.33329 7.00016 2.33329C7.46429 2.33329 7.90941 2.51767 8.2376 2.84586C8.56579 3.17404 8.75016 3.61916 8.75016 4.08329V5.24996H5.25016V4.08329ZM10.5002 11.0833C10.5002 11.238 10.4387 11.3864 10.3293 11.4958C10.2199 11.6052 10.0715 11.6666 9.91683 11.6666H4.0835C3.92879 11.6666 3.78041 11.6052 3.67102 11.4958C3.56162 11.3864 3.50016 11.238 3.50016 11.0833V6.99996C3.50016 6.84525 3.56162 6.69688 3.67102 6.58748C3.78041 6.47808 3.92879 6.41663 4.0835 6.41663H9.91683C10.0715 6.41663 10.2199 6.47808 10.3293 6.58748C10.4387 6.69688 10.5002 6.84525 10.5002 6.99996V11.0833Z" fill="white"/>
</svg>
